HIERARCHY
ROOT root
{
	OFFSET 0.000000 0.000000 0.000000
	CHANNELS 6 Xposition Yposition Zposition Zrotation Yrotation Xrotation
	JOINT lhip
	{
		OFFSET 0.058581 -0.082280 -0.017664
		CHANNELS 3 Zrotation Yrotation Xrotation
		JOINT lknee
		{
			OFFSET 0.043451 -0.386469 0.008037
			CHANNELS 3 Zrotation Yrotation Xrotation
			JOINT lankle
			{
				OFFSET -0.014790 -0.426874 -0.037428
				CHANNELS 3 Zrotation Yrotation Xrotation
				JOINT ltoe
				{
					OFFSET 0.041054 -0.060286 0.122042
					CHANNELS 3 Zrotation Yrotation Xrotation
					End Site
					{
						OFFSET 0.000000 0.000000 0.000000
					}
				}
			}
		}
	}
	JOINT rhip
	{
		OFFSET -0.060310 -0.090513 -0.013543
		CHANNELS 3 Zrotation Yrotation Xrotation
		JOINT rknee
		{
			OFFSET -0.043257 -0.383688 -0.004843
			CHANNELS 3 Zrotation Yrotation Xrotation
			JOINT rankle
			{
				OFFSET 0.019056 -0.420046 -0.034562
				CHANNELS 3 Zrotation Yrotation Xrotation
				JOINT rtoe
				{
					OFFSET -0.034840 -0.062106 0.130323
					CHANNELS 3 Zrotation Yrotation Xrotation
					End Site
					{
						OFFSET 0.000000 0.000000 0.000000
					}
				}
			}
		}
	}
	JOINT lowerback
	{
		OFFSET 0.004439 0.124404 -0.038385
		CHANNELS 3 Zrotation Yrotation Xrotation
		JOINT upperback
		{
			OFFSET 0.004488 0.137956 0.026820
			CHANNELS 3 Zrotation Yrotation Xrotation
			JOINT chest
			{
				OFFSET -0.002265 0.056032 0.002855
				CHANNELS 3 Zrotation Yrotation Xrotation
				JOINT lowerneck
				{
					OFFSET -0.013390 0.211636 -0.033468
					CHANNELS 3 Zrotation Yrotation Xrotation
					JOINT upperneck
					{
						OFFSET 0.010113 0.088937 0.050410
						CHANNELS 3 Zrotation Yrotation Xrotation
						End Site
						{
							OFFSET 0.000000 0.000000 0.000000
						}
					}
				}
				JOINT lclavicle
				{
					OFFSET 0.071702 0.114000 -0.018898
					CHANNELS 3 Zrotation Yrotation Xrotation
					JOINT lshoulder
					{
						OFFSET 0.122921 0.045205 -0.019046
						CHANNELS 3 Zrotation Yrotation Xrotation
						JOINT lelbow
						{
							OFFSET 0.255332 -0.015649 -0.022946
							CHANNELS 3 Zrotation Yrotation Xrotation
							JOINT lwrist
							{
								OFFSET 0.265709 0.012698 -0.007375
								CHANNELS 3 Zrotation Yrotation Xrotation
								End Site
								{
									OFFSET 0.000000 0.000000 0.000000
								}
							}
						}
					}
				}
				JOINT rclavicle
				{
					OFFSET -0.082954 0.112472 -0.023707
					CHANNELS 3 Zrotation Yrotation Xrotation
					JOINT rshoulder
					{
						OFFSET -0.113228 0.046853 -0.008472
						CHANNELS 3 Zrotation Yrotation Xrotation
						JOINT relbow
						{
							OFFSET -0.260127 -0.014369 -0.031269
							CHANNELS 3 Zrotation Yrotation Xrotation
							JOINT rwrist
							{
								OFFSET -0.269108 0.006794 -0.006027
								CHANNELS 3 Zrotation Yrotation Xrotation
								End Site
								{
									OFFSET 0.000000 0.000000 0.000000
								}
							}
						}
					}
				}
			}
		}
	}
}
MOTION
Frames: 10
Frame Time: 0.033333
-0.711133 0.945556 0.994596 71.555289 -3.182094 87.328750 1.405644 1.167225 -4.700811 -3.575501 1.931072 8.030850 2.347258 10.591569 -6.459653 0.000000 -0.000000 0.000000 -1.446071 -3.291058 4.885600 -0.274618 1.402134 2.064852 -2.600743 -7.441890 -11.652459 0.000000 -0.000000 0.000000 -0.871199 4.951767 5.445698 1.031907 -2.273923 10.086713 -0.891246 -0.192124 -0.241624 5.706476 1.034114 12.084612 3.575300 3.133144 30.841438 -31.771497 1.977183 2.140741 -53.070862 -8.464706 12.405439 11.662090 -24.182225 2.281054 -3.158216 -7.127413 7.093194 32.107550 3.987473 4.283749 47.773264 9.594495 15.983484 -12.660607 28.938914 -0.963387 4.250212 8.418436 10.593643 
-0.715265 0.939840 0.994597 70.640837 -3.028066 87.289206 1.992898 1.074569 -5.507556 -3.404656 2.282244 9.688361 2.152320 11.195174 -7.194784 0.000000 -0.000000 0.000000 -0.792763 -2.869589 4.674991 -0.344979 1.833257 2.353968 -2.927872 -7.240864 -11.814627 0.000000 -0.000000 0.000000 -0.735957 5.051697 5.381914 1.246913 -2.280853 10.266393 -0.712912 -0.062748 -0.290096 6.809756 1.958576 11.283721 4.099079 4.049329 29.181419 -31.890272 1.956636 1.946214 -53.148847 -7.676383 12.386153 11.826195 -23.300419 1.919573 -1.942044 -6.891325 7.813447 32.163383 4.167422 3.773357 47.761104 9.233664 16.056460 -12.685652 28.755600 -1.018277 3.461964 8.720907 11.204769 
-0.716409 0.932816 0.994069 68.913744 -3.054827 87.237021 2.596923 1.832519 -6.256699 -3.535834 2.987607 12.084460 2.145874 11.684286 -8.157509 0.000000 -0.000000 0.000000 -0.673395 -2.344464 4.790506 0.053788 2.575499 2.528475 -2.952898 -6.611430 -11.791525 0.000000 -0.000000 0.000000 -1.041254 5.329053 4.652616 1.528847 -1.899098 11.130108 -0.493817 -0.011791 -0.467111 7.531979 2.918461 10.719971 4.606681 5.203421 26.979009 -31.909708 2.271354 1.768926 -53.582841 -6.794469 11.877934 11.781820 -22.142175 1.577214 -2.777519 -7.004076 7.820776 32.143663 4.061589 3.590830 47.735754 9.121964 15.768851 -12.174460 28.749107 -0.565752 3.576314 8.957836 11.703356 
-0.718708 0.928960 0.992899 68.403902 -2.751271 86.730143 3.481179 1.428562 -7.528295 -3.704022 3.838042 15.760012 1.618198 12.119244 -9.138897 0.000000 -0.000000 0.000000 -0.452789 -2.433090 5.297076 0.765448 3.122683 2.514737 -3.583292 -6.567671 -12.265957 0.000000 -0.000000 0.000000 -0.516248 5.374939 5.390206 1.697684 -2.162268 10.641772 -0.245814 -0.319707 -0.244738 8.163385 4.046325 9.375184 4.893398 6.096530 26.265382 -32.396471 2.212361 2.015354 -53.630846 -6.090704 11.457543 11.660623 -21.564766 2.182423 -3.168314 -6.776577 7.301766 32.004256 3.935937 3.338043 47.372595 9.034706 15.606882 -11.843045 28.449629 0.046927 3.839269 8.782483 11.692883 
-0.719372 0.923599 0.991656 67.687383 -2.370836 86.256807 4.632456 1.388859 -8.345408 -3.963659 4.804286 18.635935 1.520964 12.643420 -8.966284 0.000000 -0.000000 0.000000 0.002192 -2.403635 6.313446 1.235668 3.365415 1.699898 -3.980041 -6.339436 -12.334979 0.000000 -0.000000 0.000000 -0.326896 5.466080 5.965628 2.032980 -2.353298 10.274848 0.180054 -0.772355 -0.393499 8.448428 4.573747 8.860730 4.783824 7.478680 24.909169 -32.635236 2.286773 2.084504 -53.956721 -5.461316 11.149184 11.208886 -20.245158 2.212057 -3.246248 -6.599331 6.694584 31.807576 3.808387 3.023386 47.150214 8.763898 15.573735 -11.328176 27.410960 0.402998 4.097494 8.812360 11.796139 
-0.720917 0.919101 0.990902 66.533933 -2.200438 86.078791 5.570444 1.550627 -9.409035 -4.174965 5.811885 21.371047 0.430244 12.542113 -9.039801 0.000000 -0.000000 0.000000 0.453102 -2.517296 6.291251 1.255305 3.904845 1.979306 -4.394827 -5.894748 -12.686506 0.000000 -0.000000 0.000000 -0.495471 5.845949 5.943381 2.471424 -2.495691 10.385772 0.623430 -1.084058 -0.470331 8.899015 5.648803 7.880260 4.451580 7.917511 24.309131 -33.008423 1.927748 2.357596 -54.320630 -4.855604 11.012032 11.105199 -19.461312 2.363736 -2.964062 -6.292888 6.673918 32.149825 3.576016 3.087513 46.435797 8.745181 15.052575 -11.360915 26.601815 0.099356 3.991869 8.318232 12.045620 
-0.720984 0.914254 0.991498 65.125025 -2.359077 85.738873 6.214603 2.036066 -9.919321 -4.371687 6.387860 23.933737 -0.364648 12.142122 -8.413999 0.000000 -0.000000 0.000000 0.524398 -2.482736 6.717168 1.176824 4.522689 1.889241 -4.693327 -5.362778 -12.143959 0.000000 -0.000000 0.000000 -0.924519 6.303153 5.833808 2.801297 -2.318445 10.838419 1.018839 -1.207614 -0.683560 8.961019 6.565722 6.991074 3.886738 8.601475 23.218554 -33.742872 2.139228 2.239036 -54.089217 -4.965079 10.836173 10.866253 -18.297871 2.633046 -3.475576 -6.383015 6.675829 32.506517 3.042044 3.099291 45.924786 8.580001 14.313218 -11.712750 25.474453 -1.044407 4.809406 8.244975 11.775495 
-0.720733 0.911420 0.991661 63.987911 -2.626724 85.496443 6.929406 1.242204 -10.195001 -5.124056 7.373913 25.427773 -0.745550 11.612786 -7.897134 0.000000 -0.000000 0.000000 0.177147 -2.758377 6.864708 1.453639 4.903737 1.914156 -4.999802 -4.932409 -12.200739 0.000000 -0.000000 0.000000 -0.980540 6.605994 6.527976 2.812073 -2.207289 9.876199 1.391716 -1.589883 -0.482614 8.684685 8.164270 5.799316 3.578299 9.499558 22.728721 -34.010145 2.231362 2.476989 -54.563720 -4.560523 10.476497 11.035169 -18.460226 3.130436 -2.670459 -6.359653 5.632457 32.489003 2.124703 3.205645 45.735173 8.454595 13.681967 -11.900754 24.732098 -1.451077 3.999805 7.914882 11.167731 
-0.720726 0.908126 0.992416 63.174964 -3.032215 85.382744 6.979810 1.256900 -10.866287 -5.277590 6.568215 27.510522 -1.907031 11.463018 -7.300496 0.000000 -0.000000 0.000000 0.104069 -2.534628 6.835194 1.204175 4.923061 2.192042 -5.420660 -5.074454 -12.172405 0.000000 -0.000000 0.000000 -1.427567 6.710999 6.177683 2.905662 -2.343287 10.478677 1.601252 -2.046680 -0.819649 8.107067 9.490228 5.141908 3.228813 10.862696 21.931214 -33.952468 1.983748 2.806317 -54.844049 -4.517479 10.447282 10.934210 -18.252021 2.450586 -2.771485 -6.347886 5.322581 32.964958 2.127508 3.471904 45.229042 7.959180 13.154662 -12.120658 23.609887 -2.761435 3.844058 7.889379 10.788911 
-0.721204 0.906153 0.993602 62.438864 -3.543415 84.997041 6.928179 1.202446 -10.794335 -5.713609 6.037071 28.683489 -2.216405 11.241671 -6.628370 0.000000 -0.000000 0.000000 -0.322883 -2.642285 7.099519 1.211860 5.166850 2.466839 -5.376565 -5.004581 -12.092817 0.000000 -0.000000 0.000000 -1.775274 6.855918 6.573244 2.889894 -2.408695 10.596952 1.913961 -2.397366 -0.849785 7.320741 10.889644 3.920007 2.610560 12.219677 21.159126 -34.437895 1.762879 2.897682 -54.543400 -4.697886 10.298565 10.988568 -18.897555 3.035003 -2.146828 -6.304200 5.272427 33.330747 1.630760 3.002110 44.537819 7.601631 12.783880 -11.614478 22.735044 -2.906767 3.777871 7.897680 10.906794 
